<?xml version="1.0" encoding="UTF-8"?>
<svg id="Layer_1" data-name="Layer 1" xmlns="http://www.w3.org/2000/svg" viewBox="0 0 100 100">
  <path d="M90.1,2.05l-8.77,29.23c-.37,1.22-1.49,2.05-2.76,2.05h0c-1.27,0-2.39-.83-2.76-2.05L67.04,2.05c-.37-1.22-1.49-2.05-2.76-2.05h0c-1.27,0-2.39,.83-2.76,2.05l-8.77,29.23c-.37,1.22-1.49,2.05-2.76,2.05h0c-1.27,0-2.39-.83-2.76-2.05L38.47,2.05c-.37-1.22-1.49-2.05-2.76-2.05h0c-1.27,0-2.39,.83-2.76,2.05l-8.77,29.23c-.37,1.22-1.49,2.05-2.76,2.05h0c-1.27,0-2.39-.83-2.76-2.05L9.9,2.05c-.37-1.22-1.49-2.05-2.76-2.05H0V100H100V0h-7.14c-1.27,0-2.39,.83-2.76,2.05Z"/>
</svg>