<?xml version="1.0" encoding="UTF-8"?>
<svg id="Layer_1" data-name="Layer 1" xmlns="http://www.w3.org/2000/svg" viewBox="0 0 100 100">
  <path d="M0,0H100V100H0V0ZM71.26,75.04c-4.69,9.1,4.6,18.39,13.7,13.7,1.61-.83,2.95-2.16,3.78-3.78,4.7-9.1-4.6-18.4-13.7-13.71-1.61,.83-2.95,2.17-3.78,3.78Zm0-30c-4.69,9.1,4.6,18.39,13.7,13.7,1.61-.83,2.95-2.16,3.78-3.78,4.7-9.1-4.6-18.4-13.7-13.71-1.61,.83-2.95,2.17-3.78,3.78Zm0-30c-4.69,9.1,4.6,18.39,13.7,13.7,1.61-.83,2.95-2.16,3.78-3.78,4.7-9.1-4.6-18.4-13.7-13.71-1.61,.83-2.95,2.17-3.78,3.78Zm-30,60c-4.69,9.1,4.6,18.39,13.7,13.7,1.61-.83,2.95-2.16,3.78-3.78,4.7-9.1-4.6-18.4-13.7-13.71-1.61,.83-2.95,2.17-3.78,3.78Zm0-30c-4.69,9.1,4.6,18.39,13.7,13.7,1.61-.83,2.95-2.16,3.78-3.78,4.7-9.1-4.6-18.4-13.7-13.71-1.61,.83-2.95,2.17-3.78,3.78Zm0-30c-4.69,9.1,4.6,18.39,13.7,13.7,1.61-.83,2.95-2.16,3.78-3.78,4.7-9.1-4.6-18.4-13.7-13.71-1.61,.83-2.95,2.17-3.78,3.78ZM11.26,75.04c-4.69,9.1,4.6,18.39,13.7,13.7,1.61-.83,2.95-2.16,3.78-3.78,4.7-9.1-4.6-18.4-13.7-13.71-1.61,.83-2.95,2.17-3.78,3.78Zm0-30c-4.69,9.1,4.6,18.39,13.7,13.7,1.61-.83,2.95-2.16,3.78-3.78,4.7-9.1-4.6-18.4-13.7-13.71-1.61,.83-2.95,2.17-3.78,3.78Zm0-30c-4.69,9.1,4.6,18.39,13.7,13.7,1.61-.83,2.95-2.16,3.78-3.78,4.7-9.1-4.6-18.4-13.7-13.71-1.61,.83-2.95,2.17-3.78,3.78Z"/>
</svg>