<?xml version="1.0" encoding="UTF-8"?>
<svg id="Layer_1" data-name="Layer 1" xmlns="http://www.w3.org/2000/svg" viewBox="0 0 100 100">
  <path d="M100,0V100H0V0H100Zm-27.5,90c9.66,0,17.5-7.83,17.5-17.5s-7.84-17.5-17.5-17.5-17.5,7.83-17.5,17.5,7.84,17.5,17.5,17.5Zm0-45c9.66,0,17.5-7.83,17.5-17.5s-7.84-17.5-17.5-17.5-17.5,7.83-17.5,17.5,7.84,17.5,17.5,17.5ZM27.5,90c9.66,0,17.5-7.83,17.5-17.5s-7.84-17.5-17.5-17.5-17.5,7.83-17.5,17.5,7.84,17.5,17.5,17.5Zm0-45c9.66,0,17.5-7.83,17.5-17.5s-7.84-17.5-17.5-17.5S10,17.84,10,27.5s7.84,17.5,17.5,17.5Z"/>
</svg>